<svg xmlns="http://www.w3.org/2000/svg" version="1.1" xmlns:xlink="http://www.w3.org/1999/xlink" width="1000" height="1000"><style>
    #light-icon {
      display: inline;
    }
    #dark-icon {
      display: none;
    }

    @media (prefers-color-scheme: dark) {
      #light-icon {
        display: none;
      }
      #dark-icon {
        display: inline;
      }
    }
  </style><g id="light-icon"><svg xmlns="http://www.w3.org/2000/svg" version="1.1" xmlns:xlink="http://www.w3.org/1999/xlink" width="1000" height="1000"><g clip-path="url(#SvgjsClipPath1494)"><rect width="1000" height="1000" fill="#456287"></rect><g transform="matrix(1.171875,0,0,1.171875,200,200)"><svg xmlns="http://www.w3.org/2000/svg" version="1.1" xmlns:xlink="http://www.w3.org/1999/xlink" width="512" height="512"><svg xmlns="http://www.w3.org/2000/svg" viewBox="0 0 512 512"><!--!Font Awesome Free 6.7.2 by @fontawesome - https://fontawesome.com License - https://fontawesome.com/license/free Copyright 2025 Fonticons, Inc.--><path fill="#ffffff" d="M96 352L96 96c0-35.3 28.7-64 64-64l256 0c35.3 0 64 28.7 64 64l0 197.5c0 17-6.7 33.3-18.7 45.3l-58.5 58.5c-12 12-28.3 18.7-45.3 18.7L160 416c-35.3 0-64-28.7-64-64zM272 128c-8.8 0-16 7.2-16 16l0 48-48 0c-8.8 0-16 7.2-16 16l0 32c0 8.8 7.2 16 16 16l48 0 0 48c0 8.8 7.2 16 16 16l32 0c8.8 0 16-7.2 16-16l0-48 48 0c8.8 0 16-7.2 16-16l0-32c0-8.8-7.2-16-16-16l-48 0 0-48c0-8.8-7.2-16-16-16l-32 0zm24 336c13.3 0 24 10.7 24 24s-10.7 24-24 24l-160 0C60.9 512 0 451.1 0 376L0 152c0-13.3 10.7-24 24-24s24 10.7 24 24l0 224c0 48.6 39.4 88 88 88l160 0z"></path></svg></svg></g></g><defs><clipPath id="SvgjsClipPath1494"><rect width="1000" height="1000" x="0" y="0" rx="500" ry="500"></rect></clipPath></defs></svg></g><g id="dark-icon"><svg xmlns="http://www.w3.org/2000/svg" version="1.1" xmlns:xlink="http://www.w3.org/1999/xlink" width="1000" height="1000"><g><g transform="matrix(1.953125,0,0,1.953125,0,0)"><svg xmlns="http://www.w3.org/2000/svg" version="1.1" xmlns:xlink="http://www.w3.org/1999/xlink" width="512" height="512"><svg xmlns="http://www.w3.org/2000/svg" viewBox="0 0 512 512"><!--!Font Awesome Free 6.7.2 by @fontawesome - https://fontawesome.com License - https://fontawesome.com/license/free Copyright 2025 Fonticons, Inc.--><path fill="#ffffff" d="M96 352L96 96c0-35.3 28.7-64 64-64l256 0c35.3 0 64 28.7 64 64l0 197.5c0 17-6.7 33.3-18.7 45.3l-58.5 58.5c-12 12-28.3 18.7-45.3 18.7L160 416c-35.3 0-64-28.7-64-64zM272 128c-8.8 0-16 7.2-16 16l0 48-48 0c-8.8 0-16 7.2-16 16l0 32c0 8.8 7.2 16 16 16l48 0 0 48c0 8.8 7.2 16 16 16l32 0c8.8 0 16-7.2 16-16l0-48 48 0c8.8 0 16-7.2 16-16l0-32c0-8.8-7.2-16-16-16l-48 0 0-48c0-8.8-7.2-16-16-16l-32 0zm24 336c13.3 0 24 10.7 24 24s-10.7 24-24 24l-160 0C60.9 512 0 451.1 0 376L0 152c0-13.3 10.7-24 24-24s24 10.7 24 24l0 224c0 48.6 39.4 88 88 88l160 0z"></path></svg></svg></g></g></svg></g></svg>